<?xml version="1.0" encoding="utf-8"?>
<!-- Generator: Adobe Illustrator 16.0.0, SVG Export Plug-In . SVG Version: 6.00 Build 0)  -->
<!DOCTYPE svg PUBLIC "-//W3C//DTD SVG 1.1//EN" "http://www.w3.org/Graphics/SVG/1.1/DTD/svg11.dtd">
<svg version="1.1" id="Layer_1" xmlns="http://www.w3.org/2000/svg" xmlns:xlink="http://www.w3.org/1999/xlink" x="0px" y="0px"
	 width="151.042px" height="32.163px" viewBox="0 0 151.042 32.163" enable-background="new 0 0 151.042 32.163"
	 xml:space="preserve">
     <defs><style>.cls-1{fill:#fff;}</style></defs><title>logo-light77</title><path class="cls-1" d="M9.82,22.43l-.37.13a.08.08,0,0,1-.07,0,.07.07,0,0,1-.05,0,.09.09,0,0,1,0-.07s0,0,.05,0l.49-.18a.11.11,0,0,1,.08,0,.11.11,0,0,1,0,.07v1.91a.06.06,0,0,1,0,.06.09.09,0,0,1-.12,0h0a.06.06,0,0,1,0-.06V22.43Z" transform="translate(-8.92 -0.6)"/><path class="cls-1" d="M11.24,22.43l-.37.13a.09.09,0,0,1-.07,0,0,0,0,0,1,0,0,.09.09,0,0,1,0-.07.1.1,0,0,1,.05,0l.49-.18a.11.11,0,0,1,.08,0,.11.11,0,0,1,0,.07v1.91a.06.06,0,0,1,0,.06.09.09,0,0,1-.12,0h0a.06.06,0,0,1,0-.06V22.43Z" transform="translate(-8.92 -0.6)"/><path class="cls-1" d="M12.67,22.43l-.38.13a.08.08,0,0,1-.07,0s0,0,0,0a.09.09,0,0,1,0-.07l.05,0,.5-.18a.11.11,0,0,1,.08,0,.11.11,0,0,1,0,.07v1.91a.07.07,0,1,1-.12,0V22.43Z" transform="translate(-8.92 -0.6)"/><path class="cls-1" d="M14.22,22.21a.56.56,0,0,1,.4.17.58.58,0,0,1,.16.4v.95a.57.57,0,1,1-1.13,0v-.95a.58.58,0,0,1,.16-.4.58.58,0,0,1,.41-.17Zm.39.57a.43.43,0,0,0-.11-.28.4.4,0,0,0-.56,0h0a.43.43,0,0,0-.11.28v.95a.39.39,0,0,0,.78,0v-.95Z" transform="translate(-8.92 -0.6)"/><path class="cls-1" d="M15.82,22.43l-.38.13a.06.06,0,0,1-.06,0,.05.05,0,0,1-.05,0,.09.09,0,0,1,0-.07.07.07,0,0,1,.05,0l.49-.18a.11.11,0,0,1,.08,0,.1.1,0,0,1,0,.07v1.91a.09.09,0,0,1,0,.06.06.06,0,0,1-.06,0h-.06a.06.06,0,0,1,0-.06V22.43Z" transform="translate(-8.92 -0.6)"/><path class="cls-1" d="M17.27,22.43l-.37.13a.09.09,0,0,1-.07,0,.07.07,0,0,1,0,0v-.07s0,0,0,0l.49-.18a.11.11,0,0,1,.08,0,.13.13,0,0,1,0,.07v1.91a.08.08,0,0,1-.09.08l-.06,0a.06.06,0,0,1,0-.06V22.43Z" transform="translate(-8.92 -0.6)"/><path class="cls-1" d="M18.67,22.43l-.38.13a.06.06,0,0,1-.06,0,.07.07,0,0,1-.05,0,.09.09,0,0,1,0-.07.1.1,0,0,1,.05,0l.5-.18a.09.09,0,0,1,.07,0,.09.09,0,0,1,0,.07v1.91a.06.06,0,0,1,0,.06.09.09,0,0,1-.12,0h0V22.43Z" transform="translate(-8.92 -0.6)"/><path class="cls-1" d="M21.1,22.43l-.37.13a.09.09,0,0,1-.07,0s0,0,0,0a.09.09,0,0,1,0-.07,0,0,0,0,1,.05,0l.48-.18a.11.11,0,0,1,.08,0,.08.08,0,0,1,0,.07v1.91a.09.09,0,0,1,0,.06.06.06,0,0,1-.06,0h-.06V22.43Z" transform="translate(-8.92 -0.6)"/><path class="cls-1" d="M22.53,22.43l-.38.13a.06.06,0,0,1-.06,0,.05.05,0,0,1-.05,0,.09.09,0,0,1,0-.07s0,0,.05,0l.49-.18a.11.11,0,0,1,.08,0,.25.25,0,0,1,0,.07v1.91a.12.12,0,0,1-.09.09h-.06a.09.09,0,0,1,0-.07v-1.8Z" transform="translate(-8.92 -0.6)"/><path class="cls-1" d="M24.06,22.21a.58.58,0,0,1,.57.57v.95a.57.57,0,0,1-1.13,0v-.95a.57.57,0,0,1,.57-.57Zm.39.57a.38.38,0,0,0-.12-.28.39.39,0,0,0-.27-.11.43.43,0,0,0-.28.11.41.41,0,0,0-.11.28v.95a.41.41,0,0,0,.11.28.43.43,0,0,0,.28.11.39.39,0,0,0,.27-.11.38.38,0,0,0,.12-.28Z" transform="translate(-8.92 -0.6)"/><path class="cls-1" d="M25.82,22.21a.57.57,0,0,1,.56.57v.95a.57.57,0,1,1-1.13,0v-.95a.58.58,0,0,1,.16-.4.56.56,0,0,1,.4-.17Zm.39.57a.38.38,0,0,0-.12-.28.4.4,0,0,0-.56,0h0a.39.39,0,0,0-.12.28v.95a.4.4,0,0,0,.67.28.34.34,0,0,0,.11-.28v-.95Z" transform="translate(-8.92 -0.6)"/><path class="cls-1" d="M27.41,22.43l-.37.13a.06.06,0,0,1-.06,0s0,0-.05,0a.09.09,0,0,1,0-.07.1.1,0,0,1,.05,0l.49-.18a.11.11,0,0,1,.08,0,.13.13,0,0,1,0,.07v2a.09.09,0,0,1-.13,0,.05.05,0,0,1,0-.05V22.43Z" transform="translate(-8.92 -0.6)"/><path class="cls-1" d="M29,22.21a.57.57,0,0,1,.56.57v.95a.57.57,0,1,1-1.13,0v-.95A.57.57,0,0,1,29,22.21Zm.39.57a.4.4,0,0,0-.68-.28h0a.38.38,0,0,0-.11.28v.95a.38.38,0,0,0,.39.39.39.39,0,0,0,.39-.39v-.95Z" transform="translate(-8.92 -0.6)"/><path class="cls-1" d="M30.56,22.43l-.37.13a.09.09,0,0,1-.07,0s0,0,0,0a.09.09,0,0,1,0-.07.1.1,0,0,1,.05,0l.5-.18a.09.09,0,0,1,.07,0,.09.09,0,0,1,0,.07v1.91a0,0,0,1,1-.06.06.09.09,0,0,1-.07,0V22.43Z" transform="translate(-8.92 -0.6)"/><path class="cls-1" d="M33,22.43l-.37.13a.09.09,0,0,1-.07,0,0,0,0,0,1,0,0,.09.09,0,0,1,0-.07s0,0,0,0l.49-.18a.11.11,0,0,1,.08,0,.13.13,0,0,1,0,.07v1.91a.11.11,0,0,1-.09.09H33V22.43Z" transform="translate(-8.92 -0.6)"/><path class="cls-1" d="M34.43,22.43l-.38.13a.06.06,0,0,1-.06,0s0,0-.05,0a.09.09,0,0,1,0-.07.1.1,0,0,1,.05,0l.49-.18a.11.11,0,0,1,.08,0,.13.13,0,0,1,0,.07v1.91a.06.06,0,0,1,0,.06.09.09,0,0,1-.12,0h0V22.43Z" transform="translate(-8.92 -0.6)"/><path class="cls-1" d="M36,22.21a.57.57,0,0,1,.56.57v.95a.57.57,0,0,1-.56.57.58.58,0,0,1-.57-.57v-.95a.54.54,0,0,1,.17-.4.52.52,0,0,1,.39-.17Zm.39.57a.43.43,0,0,0-.11-.28.4.4,0,0,0-.56,0h0a.43.43,0,0,0-.11.28v.95a.38.38,0,0,0,.39.39.39.39,0,0,0,.39-.39h0v-.95Z" transform="translate(-8.92 -0.6)"/><path class="cls-1" d="M37.72,22.21a.54.54,0,0,1,.39.17.54.54,0,0,1,.17.4v.95a.57.57,0,0,1-1.14,0v-.95a.54.54,0,0,1,.17-.4.56.56,0,0,1,.4-.17Zm.39.57a.4.4,0,0,0-.68-.28h0a.39.39,0,0,0-.12.28v.95a.39.39,0,0,0,.39.39.38.38,0,0,0,.39-.39v-.95Z" transform="translate(-8.92 -0.6)"/><path class="cls-1" d="M39.45,22.21a.56.56,0,0,1,.4.17.58.58,0,0,1,.16.4v.95a.59.59,0,0,1-.16.4.54.54,0,0,1-.4.17.57.57,0,0,1-.56-.57v-.95A.57.57,0,0,1,39.45,22.21Zm.39.57a.39.39,0,0,0-.39-.39.4.4,0,0,0-.39.38h0v.95a.39.39,0,0,0,.12.28.39.39,0,0,0,.27.11.37.37,0,0,0,.27-.11.36.36,0,0,0,.12-.28Z" transform="translate(-8.92 -0.6)"/><path class="cls-1" d="M41,22.43l-.38.13a.06.06,0,0,1-.06,0,.05.05,0,0,1-.05,0,.09.09,0,0,1,0-.07s0,0,.05,0l.49-.18a.11.11,0,0,1,.08,0,.1.1,0,0,1,0,.07v1.91a.09.09,0,0,1,0,.06.06.06,0,0,1-.06,0h-.06a.09.09,0,0,1,0-.06V22.43Z" transform="translate(-8.92 -0.6)"/><path class="cls-1" d="M42.6,22.21a.57.57,0,0,1,.57.57v.95a.59.59,0,0,1-.16.4.57.57,0,0,1-.8,0,.6.6,0,0,1-.17-.4v-.95a.58.58,0,0,1,.57-.57Zm.39.57a.41.41,0,0,0-.11-.28.4.4,0,0,0-.56,0h0a.34.34,0,0,0-.11.28v.95a.37.37,0,0,0,.11.28.39.39,0,0,0,.55,0h0a.41.41,0,0,0,.11-.28Z" transform="translate(-8.92 -0.6)"/><path class="cls-1" d="M45.07,22.43l-.38.13a.08.08,0,0,1-.07,0s0,0,0,0a.09.09,0,0,1,0-.07s0,0,0,0l.5-.18a.11.11,0,0,1,.08,0,.25.25,0,0,1,0,.07v1.91s0,0,0,.06a.06.06,0,0,1-.06,0h-.06a.09.09,0,0,1,0-.06V22.43Z" transform="translate(-8.92 -0.6)"/><path class="cls-1" d="M46.62,22.21a.57.57,0,0,1,.56.57v.95a.57.57,0,0,1-.56.57.66.66,0,0,1-.4-.17.59.59,0,0,1-.16-.4v-.95a.57.57,0,0,1,.56-.57Zm.39.57a.38.38,0,0,0-.12-.28.39.39,0,0,0-.27-.11.37.37,0,0,0-.27.11.38.38,0,0,0-.12.28v.95a.39.39,0,0,0,.38.39h0a.39.39,0,0,0,.27-.11.38.38,0,0,0,.12-.28v-.95Z" transform="translate(-8.92 -0.6)"/><path class="cls-1" d="M48.22,22.43l-.38.13a.06.06,0,0,1-.06,0s0,0-.05,0a.09.09,0,0,1,0-.07.1.1,0,0,1,.05,0l.49-.18a.11.11,0,0,1,.08,0,.13.13,0,0,1,0,.07v1.91a.06.06,0,0,1,0,.06.09.09,0,0,1-.12,0h0V22.43Z" transform="translate(-8.92 -0.6)"/><path class="cls-1" d="M49.64,22.43l-.38.13a.06.06,0,0,1-.06,0,0,0,0,0,1,0,0,.09.09,0,0,1,0-.07.1.1,0,0,1,.05,0l.49-.18a.11.11,0,0,1,.08,0,.11.11,0,0,1,0,.07v1.91a.06.06,0,0,1,0,.06.08.08,0,0,1-.12,0,.05.05,0,0,1,0-.05V22.43Z" transform="translate(-8.92 -0.6)"/><path class="cls-1" d="M51.22,22.21a.57.57,0,0,1,.57.57v.95a.57.57,0,1,1-1.13,0v-.95a.58.58,0,0,1,.16-.4A.56.56,0,0,1,51.22,22.21Zm.39.57a.43.43,0,0,0-.11-.28.4.4,0,0,0-.56,0h0a.43.43,0,0,0-.11.28v.95a.39.39,0,0,0,.39.39.38.38,0,0,0,.39-.39v-.95Z" transform="translate(-8.92 -0.6)"/><path class="cls-1" d="M52.79,22.43l-.37.13a.08.08,0,0,1-.07,0,0,0,0,0,1,0,0,.09.09,0,0,1,0-.07.1.1,0,0,1,0,0l.49-.18a.11.11,0,0,1,.08,0,.25.25,0,0,1,0,.07v2a.09.09,0,0,1-.07,0,.06.06,0,0,1-.06,0,.09.09,0,0,1,0-.06V22.43Z" transform="translate(-8.92 -0.6)"/><path class="cls-1" d="M55.23,22.43l-.37.13a.08.08,0,0,1-.07,0,.07.07,0,0,1,0,0,.09.09,0,0,1,0-.07s0,0,0,0l.49-.18a.11.11,0,0,1,.08,0,.13.13,0,0,1,0,.07v1.91a.09.09,0,0,1-.1.08l0,0a.06.06,0,0,1,0-.06V22.43Z" transform="translate(-8.92 -0.6)"/><path class="cls-1" d="M56.66,22.43l-.38.13a.09.09,0,0,1-.07,0,0,0,0,0,1,0,0,.09.09,0,0,1,0-.07.1.1,0,0,1,0,0l.49-.18a.11.11,0,0,1,.08,0,.11.11,0,0,1,0,.07v1.91a.06.06,0,0,1,0,.06.09.09,0,0,1-.12,0h0a.06.06,0,0,1,0-.06V22.43Z" transform="translate(-8.92 -0.6)"/><path class="cls-1" d="M58.21,22.21a.54.54,0,0,1,.39.17.54.54,0,0,1,.17.4v.95a.57.57,0,1,1-1.14,0v-.95a.54.54,0,0,1,.17-.4.54.54,0,0,1,.39-.17Zm.39.57a.4.4,0,0,0-.68-.28h0a.39.39,0,0,0-.12.28v.95a.39.39,0,0,0,.39.39.38.38,0,0,0,.39-.39v-.95Z" transform="translate(-8.92 -0.6)"/><path class="cls-1" d="M59.94,22.21a.56.56,0,0,1,.4.17.58.58,0,0,1,.16.4v.95a.57.57,0,1,1-1.13,0v-.95a.58.58,0,0,1,.57-.57Zm.39.57a.43.43,0,0,0-.11-.28.4.4,0,0,0-.56,0h0a.43.43,0,0,0-.11.28v.95a.39.39,0,0,0,.39.39.38.38,0,0,0,.39-.39v-.95Z" transform="translate(-8.92 -0.6)"/><path class="cls-1" d="M61.54,22.43l-.38.13a.06.06,0,0,1-.06,0,.05.05,0,0,1-.05,0,.09.09,0,0,1,0-.07.07.07,0,0,1,.05,0l.49-.18a.11.11,0,0,1,.08,0,.1.1,0,0,1,0,.07v1.91a.09.09,0,0,1,0,.06h-.06a0,0,0,0,1-.06-.06V22.43Z" transform="translate(-8.92 -0.6)"/><path class="cls-1" d="M63.11,22.21a.54.54,0,0,1,.39.17.54.54,0,0,1,.17.4v.95a.56.56,0,0,1-.17.4.52.52,0,0,1-.39.17.57.57,0,0,1-.57-.57v-.95A.57.57,0,0,1,63.11,22.21Zm.39.57a.4.4,0,0,0-.39-.39.38.38,0,0,0-.39.38h0v.95a.43.43,0,0,0,.11.28.39.39,0,0,0,.28.11.39.39,0,0,0,.27-.11.4.4,0,0,0,.12-.28Z" transform="translate(-8.92 -0.6)"/><path class="cls-1" d="M64.83,22.21a.58.58,0,0,1,.57.57v.95a.57.57,0,0,1-1.13,0v-.95a.57.57,0,0,1,.57-.57Zm.39.57a.38.38,0,0,0-.12-.28.39.39,0,0,0-.27-.11.43.43,0,0,0-.28.11.41.41,0,0,0-.11.28v.95a.41.41,0,0,0,.11.28.43.43,0,0,0,.28.11A.39.39,0,0,0,65.1,24a.38.38,0,0,0,.12-.28Z" transform="translate(-8.92 -0.6)"/><path class="cls-1" d="M67.29,22.43l-.37.13a.09.09,0,0,1-.07,0,0,0,0,0,1,0,0,.09.09,0,0,1,0-.07s0,0,0,0l.49-.18a.11.11,0,0,1,.08,0,.09.09,0,0,1,0,.07v1.91a.09.09,0,0,1-.12.06.14.14,0,0,1,0-.06V22.43Z" transform="translate(-8.92 -0.6)"/><path class="cls-1" d="M68.72,22.43l-.37.13a.08.08,0,0,1-.07,0,.07.07,0,0,1,0,0,.09.09,0,0,1,0-.07.1.1,0,0,1,0,0l.5-.18a.11.11,0,0,1,.08,0,.11.11,0,0,1,0,.07v1.91a.06.06,0,0,1,0,.06.09.09,0,0,1-.12,0h0V22.43Z" transform="translate(-8.92 -0.6)"/><path class="cls-1" d="M70.27,22.21a.58.58,0,0,1,.57.57v.95a.58.58,0,0,1-.57.57.58.58,0,0,1-.57-.57v-.95a.54.54,0,0,1,.17-.4.54.54,0,0,1,.39-.17Zm.39.57a.41.41,0,0,0-.11-.28.4.4,0,0,0-.56,0h0a.43.43,0,0,0-.11.28v.95a.38.38,0,0,0,.39.39.43.43,0,0,0,.28-.11.41.41,0,0,0,.11-.28v-.95Z" transform="translate(-8.92 -0.6)"/><path class="cls-1" d="M72,22.21a.52.52,0,0,1,.39.17.54.54,0,0,1,.17.4v.95a.58.58,0,0,1-.57.57.57.57,0,0,1-.56-.57v-.95a.5.5,0,0,1,.16-.4.56.56,0,0,1,.4-.17Zm.39.57a.4.4,0,0,0-.68-.28h0a.35.35,0,0,0-.11.28v.95a.38.38,0,0,0,.39.39.39.39,0,0,0,.39-.39v-.95Z" transform="translate(-8.92 -0.6)"/><path class="cls-1" d="M73.6,22.43l-.37.13a.09.09,0,0,1-.07,0s0,0,0,0a.09.09,0,0,1,0-.07.1.1,0,0,1,0,0l.49-.18a.11.11,0,0,1,.08,0,.09.09,0,0,1,0,.07v1.91a0,0,0,1,1-.06.06.09.09,0,0,1-.07,0,.14.14,0,0,1,0-.06V22.43Z" transform="translate(-8.92 -0.6)"/><path class="cls-1" d="M75.16,22.21a.52.52,0,0,1,.39.17.54.54,0,0,1,.17.4v.95a.56.56,0,0,1-.17.4.52.52,0,0,1-.39.17.58.58,0,0,1-.57-.57v-.95A.58.58,0,0,1,75.16,22.21Zm.39.57a.43.43,0,0,0-.11-.28.4.4,0,0,0-.56,0h0a.43.43,0,0,0-.11.28v.95a.38.38,0,0,0,.39.39.39.39,0,0,0,.39-.39v-.95Z" transform="translate(-8.92 -0.6)"/><path class="cls-1" d="M76.75,22.43l-.37.13a.09.09,0,0,1-.07,0s0,0,0,0a.09.09,0,0,1,0-.07s0,0,0,0l.5-.18a.09.09,0,0,1,.07,0,.09.09,0,0,1,0,.07v1.91a.14.14,0,0,1,0,.06.09.09,0,0,1-.07,0h0a.09.09,0,0,1,0-.06V22.43Z" transform="translate(-8.92 -0.6)"/><path class="cls-1" d="M79.19,22.43l-.38.13a.06.06,0,0,1-.06,0,0,0,0,0,1,0,0,.09.09,0,0,1,0-.07.1.1,0,0,1,.05,0l.49-.18a.11.11,0,0,1,.08,0,.11.11,0,0,1,0,.07v1.91a.06.06,0,0,1,0,.06.09.09,0,0,1-.12,0h0a.06.06,0,0,1,0-.06V22.43Z" transform="translate(-8.92 -0.6)"/><path class="cls-1" d="M80.65,22.43l-.38.13a.06.06,0,0,1-.06,0s0,0,0,0a.09.09,0,0,1,0-.07.1.1,0,0,1,0,0l.49-.18a.11.11,0,0,1,.08,0,.13.13,0,0,1,0,.07v1.91a.06.06,0,0,1,0,.06.09.09,0,0,1-.12,0h0a.06.06,0,0,1,0-.06V22.43Z" transform="translate(-8.92 -0.6)"/><path class="cls-1" d="M82,22.43l-.37.13a.08.08,0,0,1-.07,0,.05.05,0,0,1,0,0,.09.09,0,0,1,0-.07s0,0,0,0l.49-.18a.14.14,0,0,1,.09,0,.11.11,0,0,1,0,.07v2a.09.09,0,0,1-.07,0h-.06a.14.14,0,0,1,0-.06V22.43Z" transform="translate(-8.92 -0.6)"/><path class="cls-1" d="M83.6,22.21a.57.57,0,0,1,.56.57v.95a.59.59,0,0,1-.16.4.57.57,0,0,1-.8,0,.59.59,0,0,1-.16-.4v-.95a.57.57,0,0,1,.56-.57Zm.39.57a.39.39,0,0,0-.12-.28.39.39,0,0,0-.27-.11.39.39,0,0,0-.28.11.34.34,0,0,0-.11.28v.95a.34.34,0,0,0,.11.28.4.4,0,0,0,.67-.27h0Z" transform="translate(-8.92 -0.6)"/><path class="cls-1" d="M85.17,22.43l-.37.13a.09.09,0,0,1-.07,0,0,0,0,0,1,0,0,.09.09,0,0,1,0-.07s0,0,0,0l.5-.18a.09.09,0,0,1,.07,0,.09.09,0,0,1,0,.07v1.91a0,0,0,1,1-.06.06,0,0,0,0,1,0,0,.09.09,0,0,1,0-.06V22.43Z" transform="translate(-8.92 -0.6)"/><path class="cls-1" d="M86.62,22.43l-.38.13a.06.06,0,0,1-.06,0s0,0-.05,0a.09.09,0,0,1,0-.07s0,0,.05,0l.49-.18a.11.11,0,0,1,.08,0,.11.11,0,0,1,0,.07v1.91a.06.06,0,0,1,0,.06.09.09,0,0,1-.12,0h0a.06.06,0,0,1,0-.06V22.43Z" transform="translate(-8.92 -0.6)"/><path class="cls-1" d="M88.17,22.21a.57.57,0,0,1,.56.57v.95a.57.57,0,0,1-.56.57.58.58,0,0,1-.57-.57v-.95a.54.54,0,0,1,.17-.4.52.52,0,0,1,.39-.17Zm.39.57a.41.41,0,0,0-.11-.28.43.43,0,0,0-.28-.11.39.39,0,0,0-.39.39v.95a.36.36,0,0,0,.12.28.39.39,0,0,0,.27.11.43.43,0,0,0,.28-.11.41.41,0,0,0,.11-.28Z" transform="translate(-8.92 -0.6)"/><path class="cls-1" d="M90.43,22.23l.06,0a.09.09,0,0,1,0,.07l-.15,1.9a.05.05,0,0,1,0,.05,0,0,0,0,1,0,0h0a.06.06,0,0,1-.06,0,.06.06,0,0,1,0-.06l.16-1.9a.09.09,0,0,1,0-.06h0Z" transform="translate(-8.92 -0.6)"/><path class="cls-1" d="M92.74,22.43l-.37.13a.08.08,0,0,1-.07,0,.07.07,0,0,1,0,0v-.07s0,0,0,0l.49-.18a.11.11,0,0,1,.08,0,.13.13,0,0,1,0,.07v1.91a.09.09,0,0,1,0,.06.06.06,0,0,1-.06,0,.06.06,0,0,1-.06,0l0-.06V22.43Z" transform="translate(-8.92 -0.6)"/><path class="cls-1" d="M94.17,22.43l-.38.13a.08.08,0,0,1-.07,0,0,0,0,0,1,0,0,.09.09,0,0,1,0-.07s0,0,0,0l.5-.18a.11.11,0,0,1,.08,0,.11.11,0,0,1,0,.07v1.91a.06.06,0,0,1,0,.06.09.09,0,0,1-.12,0h0a.06.06,0,0,1,0-.06V22.43Z" transform="translate(-8.92 -0.6)"/><path class="cls-1" d="M95.72,22.21a.57.57,0,0,1,.56.57v.95a.57.57,0,1,1-1.13,0v-.95a.58.58,0,0,1,.16-.4.56.56,0,0,1,.4-.17Zm.39.57A.38.38,0,0,0,96,22.5a.4.4,0,0,0-.56,0h0a.39.39,0,0,0-.12.28v.95A.4.4,0,0,0,96,24a.38.38,0,0,0,.12-.28v-.95Z" transform="translate(-8.92 -0.6)"/><path class="cls-1" d="M97.45,22.21a.57.57,0,0,1,.57.57v.95a.56.56,0,0,1-.17.4.54.54,0,0,1-.4.17.57.57,0,0,1-.56-.57v-.95A.57.57,0,0,1,97.45,22.21Zm.39.57a.38.38,0,0,0-.11-.28.4.4,0,0,0-.56,0h0a.39.39,0,0,0-.12.28v.95a.39.39,0,0,0,.39.39.38.38,0,0,0,.39-.39v-.95Z" transform="translate(-8.92 -0.6)"/><path class="cls-1" d="M99.19,22.21a.56.56,0,0,1,.4.17.58.58,0,0,1,.16.4v.95a.59.59,0,0,1-.16.4.56.56,0,0,1-.4.17.58.58,0,0,1-.57-.57v-.95A.58.58,0,0,1,99.19,22.21Zm.39.57a.43.43,0,0,0-.11-.28.4.4,0,0,0-.56,0h0a.43.43,0,0,0-.11.28v.95a.39.39,0,0,0,.78,0v-.95Z" transform="translate(-8.92 -0.6)"/><path class="cls-1" d="M100.93,22.21a.52.52,0,0,1,.39.17.54.54,0,0,1,.17.4v.95a.56.56,0,0,1-.17.4.52.52,0,0,1-.39.17.58.58,0,0,1-.57-.57v-.95A.58.58,0,0,1,100.93,22.21Zm.39.57a.4.4,0,0,0-.39-.39.39.39,0,0,0-.28.11.34.34,0,0,0-.11.28v.95a.37.37,0,0,0,.11.28.39.39,0,0,0,.28.11.39.39,0,0,0,.27-.11.36.36,0,0,0,.12-.28Z" transform="translate(-8.92 -0.6)"/><path class="cls-1" d="M102.52,22.43l-.37.13a.09.09,0,0,1-.07,0s0,0,0,0a.09.09,0,0,1,0-.07s0,0,0,0l.49-.18a.11.11,0,0,1,.08,0,.09.09,0,0,1,0,.07v1.91a.14.14,0,0,1,0,.06.09.09,0,0,1-.07,0,0,0,0,0,1,0,0,.06.06,0,0,1,0-.06V22.43Z" transform="translate(-8.92 -0.6)"/><path class="cls-1" d="M105,22.43l-.37.13a.09.09,0,0,1-.07,0,0,0,0,0,1,0,0,.09.09,0,0,1,0-.07.1.1,0,0,1,0,0l.49-.18a.11.11,0,0,1,.08,0,.25.25,0,0,1,0,.07v2a.09.09,0,0,1-.13,0,.05.05,0,0,1,0-.05V22.43Z" transform="translate(-8.92 -0.6)"/><path class="cls-1" d="M106.38,22.43l-.37.13a.09.09,0,0,1-.07,0,0,0,0,0,1,0,0,.09.09,0,0,1,0-.07s0,0,0,0l.48-.18a.14.14,0,0,1,.09,0,.11.11,0,0,1,0,.07v1.91a.06.06,0,0,1,0,.06h-.06a0,0,0,0,1-.06-.06V22.43Z" transform="translate(-8.92 -0.6)"/><path class="cls-1" d="M107.81,22.43l-.37.13a.08.08,0,0,1-.07,0,.05.05,0,0,1-.05,0,.09.09,0,0,1,0-.07s0,0,.05,0l.49-.18a.11.11,0,0,1,.08,0,.1.1,0,0,1,0,.07v1.91a.09.09,0,0,1,0,.06.06.06,0,0,1-.06,0h-.06a.09.09,0,0,1,0-.06V22.43Z" transform="translate(-8.92 -0.6)"/><path class="cls-1" d="M109.36,22.21a.58.58,0,0,1,.57.57v.95a.58.58,0,0,1-.57.57.66.66,0,0,1-.4-.17.59.59,0,0,1-.16-.4v-.95a.57.57,0,0,1,.56-.57Zm.4.57a.4.4,0,0,0-.12-.28.43.43,0,0,0-.28-.11.39.39,0,0,0-.27.11.38.38,0,0,0-.12.28v.95a.39.39,0,0,0,.38.39h0a.43.43,0,0,0,.28-.11.4.4,0,0,0,.12-.28v-.95Z" transform="translate(-8.92 -0.6)"/><path class="cls-1" d="M111.1,22.21a.57.57,0,0,1,.56.57v.95a.57.57,0,1,1-1.13,0v-.95a.58.58,0,0,1,.16-.4.56.56,0,0,1,.4-.17Zm.39.57a.39.39,0,0,0-.12-.28.39.39,0,0,0-.27-.11.39.39,0,0,0-.39.39v.95a.39.39,0,0,0,.11.28.41.41,0,0,0,.28.11.4.4,0,0,0,.39-.38h0Z" transform="translate(-8.92 -0.6)"/><path class="cls-1" d="M112.83,22.21a.57.57,0,0,1,.57.57v.95a.57.57,0,1,1-1.13,0v-.95a.58.58,0,0,1,.16-.4.56.56,0,0,1,.4-.17Zm.39.57a.38.38,0,0,0-.11-.28.4.4,0,0,0-.56,0h0a.39.39,0,0,0-.12.28v.95a.39.39,0,0,0,.39.39.38.38,0,0,0,.39-.39v-.95Z" transform="translate(-8.92 -0.6)"/><path class="cls-1" d="M114.6,22.21a.56.56,0,0,1,.4.17.58.58,0,0,1,.16.4v.95a.57.57,0,1,1-1.13,0v-.95a.57.57,0,0,1,.56-.57Zm.39.57a.43.43,0,0,0-.11-.28.4.4,0,0,0-.56,0h0a.43.43,0,0,0-.11.28v.95a.38.38,0,0,0,.39.39.39.39,0,0,0,.39-.39v-.95Z" transform="translate(-8.92 -0.6)"/><path class="cls-1" d="M117,22.43l-.37.13a.06.06,0,0,1-.06,0s0,0,0,0a.09.09,0,0,1,0-.07.1.1,0,0,1,0,0l.49-.18a.11.11,0,0,1,.08,0,.13.13,0,0,1,0,.07v1.91a0,0,0,1,1-.06.06.09.09,0,0,1-.07,0,.14.14,0,0,1,0-.06V22.43Z" transform="translate(-8.92 -0.6)"/><path class="cls-1" d="M118.46,22.43l-.38.13a.06.06,0,0,1-.06,0,.05.05,0,0,1,0,0,.09.09,0,0,1,0-.07s0,0,0,0l.49-.18a.11.11,0,0,1,.08,0,.1.1,0,0,1,0,.07v1.91a.09.09,0,0,1,0,.06h-.06a.06.06,0,0,1-.06,0,.09.09,0,0,1,0-.06V22.43Z" transform="translate(-8.92 -0.6)"/><path class="cls-1" d="M119.88,22.43l-.37.13a.09.09,0,0,1-.07,0,0,0,0,0,1,0,0,.09.09,0,0,1,0-.07.1.1,0,0,1,0,0l.49-.18a.11.11,0,0,1,.08,0,.11.11,0,0,1,0,.07v1.91a.06.06,0,0,1,0,.06.09.09,0,0,1-.12,0h0a.06.06,0,0,1,0-.06V22.43Z" transform="translate(-8.92 -0.6)"/><path class="cls-1" d="M121.43,22.21a.57.57,0,0,1,.57.57v.95a.57.57,0,0,1-.57.57.63.63,0,0,1-.39-.17.56.56,0,0,1-.17-.4v-.95a.54.54,0,0,1,.17-.4A.54.54,0,0,1,121.43,22.21Zm.4.57a.39.39,0,0,0-.38-.39h0a.4.4,0,0,0-.39.39v.95a.4.4,0,0,0,.12.28.39.39,0,0,0,.27.11.39.39,0,0,0,.28-.11.44.44,0,0,0,.12-.28Z" transform="translate(-8.92 -0.6)"/><path class="cls-1" d="M123.17,22.21a.58.58,0,0,1,.57.57v.95a.56.56,0,0,1-.17.4.54.54,0,0,1-.4.17.57.57,0,0,1-.56-.57v-.95A.57.57,0,0,1,123.17,22.21Zm.39.57a.43.43,0,0,0-.11-.28.4.4,0,0,0-.56,0h0a.43.43,0,0,0-.11.28v.95a.39.39,0,0,0,.39.39.38.38,0,0,0,.39-.39v-.95Z" transform="translate(-8.92 -0.6)"/><path class="cls-1" d="M124.91,22.21a.56.56,0,0,1,.4.17.58.58,0,0,1,.16.4v.95a.57.57,0,1,1-1.13,0v-.95a.57.57,0,0,1,.56-.57Zm.39.57a.43.43,0,0,0-.11-.28.4.4,0,0,0-.56,0h0a.43.43,0,0,0-.11.28v.95a.38.38,0,0,0,.39.39.39.39,0,0,0,.39-.39v-.95Z" transform="translate(-8.92 -0.6)"/><path class="cls-1" d="M126.65,22.21a.57.57,0,0,1,.56.57v.95a.59.59,0,0,1-.16.4.57.57,0,0,1-.8,0,.59.59,0,0,1-.16-.4v-.95a.57.57,0,0,1,.56-.57Zm.39.57a.39.39,0,0,0-.12-.28.39.39,0,0,0-.27-.11.39.39,0,0,0-.28.11.34.34,0,0,0-.11.28v.95a.34.34,0,0,0,.11.28.4.4,0,0,0,.67-.27h0Z" transform="translate(-8.92 -0.6)"/><path class="cls-1" d="M129.11,22.43l-.38.13a.06.06,0,0,1-.06,0,.05.05,0,0,1,0,0,.09.09,0,0,1,0-.07s0,0,0,0l.49-.18a.11.11,0,0,1,.08,0,.13.13,0,0,1,0,.07v2a.09.09,0,0,1-.07,0h-.06l0-.06V22.43Z" transform="translate(-8.92 -0.6)"/><path class="cls-1" d="M130.53,22.43l-.37.13a.09.09,0,0,1-.07,0s0,0,0,0a.09.09,0,0,1,0-.07s0,0,0,0l.49-.18a.11.11,0,0,1,.08,0,.08.08,0,0,1,0,.07v1.91a.14.14,0,0,1,0,.06.09.09,0,0,1-.07,0,0,0,0,0,1-.05,0,.06.06,0,0,1,0-.06V22.43Z" transform="translate(-8.92 -0.6)"/><path class="cls-1" d="M132,22.43l-.37.13a.08.08,0,0,1-.07,0,.07.07,0,0,1-.05,0,.09.09,0,0,1,0-.07.1.1,0,0,1,.05,0l.5-.18a.11.11,0,0,1,.08,0,.11.11,0,0,1,0,.07v1.91a.06.06,0,0,1,0,.06.09.09,0,0,1-.12,0h0a.06.06,0,0,1,0-.06V22.43Z" transform="translate(-8.92 -0.6)"/><path class="cls-1" d="M133.51,22.21a.58.58,0,0,1,.57.57v.95a.56.56,0,0,1-.17.4.54.54,0,0,1-.4.17.58.58,0,0,1-.57-.57v-.95a.54.54,0,0,1,.17-.4.54.54,0,0,1,.39-.17Zm.39.57a.43.43,0,0,0-.11-.28.4.4,0,0,0-.56,0h0a.43.43,0,0,0-.11.28v.95a.38.38,0,0,0,.39.39.39.39,0,0,0,.39-.39v-.95Z" transform="translate(-8.92 -0.6)"/><path class="cls-1" d="M135.25,22.21a.57.57,0,0,1,.56.57v.95a.57.57,0,1,1-1.13,0v-.95A.57.57,0,0,1,135.25,22.21Zm.39.57a.4.4,0,0,0-.68-.28h0a.38.38,0,0,0-.11.28v.95a.38.38,0,0,0,.39.39.39.39,0,0,0,.39-.39v-.95Z" transform="translate(-8.92 -0.6)"/><path class="cls-1" d="M136.84,22.43l-.37.13a.09.09,0,0,1-.07,0s0,0,0,0a.09.09,0,0,1,0-.07.1.1,0,0,1,0,0l.49-.18a.11.11,0,0,1,.08,0,.09.09,0,0,1,0,.07v1.91a.06.06,0,0,1,0,.06H137a.09.09,0,0,1-.07,0,.14.14,0,0,1,0-.06V22.43Z" transform="translate(-8.92 -0.6)"/><path class="cls-1" d="M138.27,22.43l-.37.13a.08.08,0,0,1-.07,0,.05.05,0,0,1-.05,0,.09.09,0,0,1,0-.07s0,0,.05,0l.49-.18a.11.11,0,0,1,.08,0,.13.13,0,0,1,0,.07v1.91a.09.09,0,0,1,0,.06.06.06,0,0,1-.06,0h-.06a.09.09,0,0,1,0-.06V22.43Z" transform="translate(-8.92 -0.6)"/><path class="cls-1" d="M9.82,26l-.37.14H9.38a.09.09,0,0,1,0-.07.1.1,0,0,1,.05-.11l.49-.18a.11.11,0,0,1,.08,0,.1.1,0,0,1,0,.07v1.92a.09.09,0,0,1-.09.08.08.08,0,0,1-.08-.08h0V26Z" transform="translate(-8.92 -0.6)"/><path class="cls-1" d="M11.24,26l-.37.14H10.8a.07.07,0,0,1,0-.05.06.06,0,0,1,0-.06.08.08,0,0,1,.05-.05l.49-.18a.09.09,0,0,1,.11,0v1.92a.08.08,0,0,1-.08.08.09.09,0,0,1-.09-.08h0V26Z" transform="translate(-8.92 -0.6)"/><path class="cls-1" d="M12.8,25.77a.57.57,0,0,1,.39.16.54.54,0,0,1,.17.4v1a.57.57,0,0,1-1.14,0v-1a.54.54,0,0,1,.17-.4.57.57,0,0,1,.39-.16Zm.39.56a.36.36,0,0,0-.12-.27.39.39,0,0,0-.54,0l0,0a.36.36,0,0,0-.12.27v1a.36.36,0,0,0,.12.27.37.37,0,0,0,.54,0l0,0a.36.36,0,0,0,.12-.27Z" transform="translate(-8.92 -0.6)"/><path class="cls-1" d="M14.39,26l-.37.14H14l0-.05A.1.1,0,0,1,14,26l.49-.18a.08.08,0,0,1,.11,0s0,0,0,0v1.95a.09.09,0,0,1-.07,0,.06.06,0,0,1-.06,0,.09.09,0,0,1,0-.06V26Z" transform="translate(-8.92 -0.6)"/><path class="cls-1" d="M16,25.77a.56.56,0,0,1,.56.56v1a.59.59,0,0,1-.16.4.58.58,0,0,1-.4.16.56.56,0,0,1-.56-.57v-1a.55.55,0,0,1,.56-.56Zm.39.56a.36.36,0,0,0-.12-.27.39.39,0,0,0-.54,0l0,0a.35.35,0,0,0-.11.27v1a.35.35,0,0,0,.11.27.37.37,0,0,0,.54,0l0,0a.36.36,0,0,0,.12-.27Z" transform="translate(-8.92 -0.6)"/><path class="cls-1" d="M17.68,25.77a.55.55,0,0,1,.56.56v1a.59.59,0,0,1-.16.4.57.57,0,0,1-.8,0,.59.59,0,0,1-.16-.4v-1a.55.55,0,0,1,.56-.56Zm.39.56a.4.4,0,0,0-.39-.39.41.41,0,0,0-.39.39v1a.41.41,0,0,0,.39.39.4.4,0,0,0,.39-.39Z" transform="translate(-8.92 -0.6)"/><path class="cls-1" d="M19.42,25.77a.55.55,0,0,1,.56.56v1a.59.59,0,0,1-.16.4.57.57,0,0,1-.8,0,.5.5,0,0,1-.16-.4v-1a.5.5,0,0,1,.16-.4A.59.59,0,0,1,19.42,25.77Zm.39.56a.36.36,0,0,0-.12-.27.4.4,0,0,0-.27-.12.38.38,0,0,0-.28.12.39.39,0,0,0-.11.27v1a.39.39,0,0,0,.11.27.38.38,0,0,0,.28.12.41.41,0,0,0,.39-.39Z" transform="translate(-8.92 -0.6)"/><path class="cls-1" d="M21.88,26l-.37.14h-.07a.07.07,0,0,1,0-.05.09.09,0,0,1,.05-.11l.49-.18a.06.06,0,0,1,.08,0,.08.08,0,0,1,0,.07v1.9a.09.09,0,0,1-.08.08.09.09,0,0,1-.09-.08h0V26Z" transform="translate(-8.92 -0.6)"/><path class="cls-1" d="M23.31,26l-.37.14h-.07a.12.12,0,0,1-.05-.05.06.06,0,0,1,0-.06.08.08,0,0,1,.05-.05l.5-.18a.07.07,0,0,1,.1,0,0,0,0,0,1,0,0v1.89a.09.09,0,0,1-.09.08.09.09,0,0,1-.08-.08h0V26Z" transform="translate(-8.92 -0.6)"/><path class="cls-1" d="M24.86,25.77a.59.59,0,0,1,.4.16.58.58,0,0,1,.16.4v1a.58.58,0,0,1-.16.4.51.51,0,0,1-.4.16.57.57,0,0,1-.57-.56v-1a.52.52,0,0,1,.17-.39.54.54,0,0,1,.39-.17Zm.39.56a.39.39,0,0,0-.11-.27.4.4,0,0,0-.55,0l0,0a.39.39,0,0,0-.11.27v1a.39.39,0,0,0,.11.27.37.37,0,0,0,.54,0l0,0a.39.39,0,0,0,.11-.27Z" transform="translate(-8.92 -0.6)"/><path class="cls-1" d="M26.46,26l-.38.14H26a.1.1,0,0,1,0-.05A.06.06,0,0,1,26,26,.08.08,0,0,1,26,26l.5-.18a.09.09,0,0,1,.11,0v1.92a.08.08,0,0,1-.07.08h0a.09.09,0,0,1-.07,0,.11.11,0,0,1,0-.06V26Z" transform="translate(-8.92 -0.6)"/><path class="cls-1" d="M28,25.77a.59.59,0,0,1,.4.16.5.5,0,0,1,.16.4v1a.57.57,0,1,1-1.13,0v-1a.56.56,0,0,1,.17-.4.58.58,0,0,1,.4-.16Zm.39.56a.39.39,0,0,0-.65-.29l0,0a.39.39,0,0,0-.11.27v1a.4.4,0,0,0,.66.29l0,0a.39.39,0,0,0,.11-.27Z" transform="translate(-8.92 -0.6)"/><path class="cls-1" d="M29.75,25.77a.56.56,0,0,1,.56.56v1a.59.59,0,0,1-.16.4.58.58,0,0,1-.4.16.55.55,0,0,1-.56-.56v-1a.55.55,0,0,1,.16-.39.56.56,0,0,1,.4-.17Zm.39.56a.39.39,0,0,0-.11-.27.4.4,0,0,0-.55,0l0,0a.32.32,0,0,0-.11.27v1a.32.32,0,0,0,.11.27.37.37,0,0,0,.54,0l0,0a.39.39,0,0,0,.11-.27Z" transform="translate(-8.92 -0.6)"/><path class="cls-1" d="M31.34,26l-.37.14H30.9a.08.08,0,0,1,0-.11.08.08,0,0,1,.05-.05l.49-.18a.06.06,0,0,1,.08,0,.08.08,0,0,1,0,.07v1.9a.09.09,0,0,1,0,.06.06.06,0,0,1-.06,0,.06.06,0,0,1-.06,0V26Z" transform="translate(-8.92 -0.6)"/><path class="cls-1" d="M33.78,26l-.38.14h-.06a.07.07,0,0,1,0-.05.06.06,0,0,1,0-.06.06.06,0,0,1,.05-.05l.49-.18a.09.09,0,0,1,.11,0v1.92a.09.09,0,0,1-.1.08l0,0a.09.09,0,0,1,0-.06V26Z" transform="translate(-8.92 -0.6)"/><path class="cls-1" d="M35.2,26l-.37.14h-.07a.1.1,0,0,1,0-.05.09.09,0,0,1,.05-.11l.5-.18a.09.09,0,0,1,.07,0,.08.08,0,0,1,0,.07v2a.06.06,0,0,1-.06,0,.09.09,0,0,1-.07,0,.14.14,0,0,1,0-.06V26Z" transform="translate(-8.92 -0.6)"/><path class="cls-1" d="M36.76,25.77a.57.57,0,0,1,.57.56v1a.6.6,0,0,1-.17.4.57.57,0,0,1-.39.16.6.6,0,0,1-.41-.16.59.59,0,0,1-.16-.4v-1a.55.55,0,0,1,.16-.39.57.57,0,0,1,.41-.17Zm.39.56a.39.39,0,0,0-.11-.27.4.4,0,0,0-.55,0l0,0a.39.39,0,0,0-.11.27v1a.39.39,0,0,0,.11.27.37.37,0,0,0,.54,0l0,0a.39.39,0,0,0,.11-.27Z" transform="translate(-8.92 -0.6)"/><path class="cls-1" d="M38.5,25.77a.56.56,0,0,1,.56.56v1a.59.59,0,0,1-.16.4.58.58,0,0,1-.4.16.55.55,0,0,1-.56-.56v-1a.55.55,0,0,1,.16-.39.56.56,0,0,1,.4-.17Zm.39.56a.41.41,0,0,0-.39-.39.36.36,0,0,0-.28.12.32.32,0,0,0-.11.27v1a.32.32,0,0,0,.11.27.36.36,0,0,0,.28.12.41.41,0,0,0,.39-.39Z" transform="translate(-8.92 -0.6)"/><path class="cls-1" d="M40.09,26l-.37.14h-.07a.08.08,0,0,1,0-.11.06.06,0,0,1,0-.05l.49-.18a.06.06,0,0,1,.08,0,.08.08,0,0,1,0,.07v1.9a.09.09,0,0,1,0,.06.06.06,0,0,1-.06,0,.06.06,0,0,1-.06,0,.07.07,0,0,1,0-.06V26Z" transform="translate(-8.92 -0.6)"/><path class="cls-1" d="M41.52,26l-.38.14a.09.09,0,0,1-.11-.06A.06.06,0,0,1,41,26a.12.12,0,0,1,0-.05l.49-.18h.08a.08.08,0,0,1,0,.07v1.91a.09.09,0,0,1-.09.08.08.08,0,0,1-.08-.08h0V26Z" transform="translate(-8.92 -0.6)"/><path class="cls-1" d="M42.94,26l-.37.14H42.5a.07.07,0,0,1,0-.05.06.06,0,0,1,0-.06.08.08,0,0,1,0-.05l.49-.18a.09.09,0,0,1,.11,0v1.92a.08.08,0,0,1-.09.08l-.05,0a.09.09,0,0,1,0-.06V26Z" transform="translate(-8.92 -0.6)"/><path class="cls-1" d="M45.38,26l-.38.14h-.06a.12.12,0,0,1,0-.05.09.09,0,0,1,0-.11l.49-.18a.06.06,0,0,1,.08,0,.08.08,0,0,1,0,.07v1.9a.09.09,0,0,1,0,.06.06.06,0,0,1-.06,0,.06.06,0,0,1-.06,0,.07.07,0,0,1,0-.06V26Z" transform="translate(-8.92 -0.6)"/><path class="cls-1" d="M46.8,26l-.37.14h-.07a.07.07,0,0,1,0-.05.09.09,0,0,1,0-.11l.49-.18a.06.06,0,0,1,.08,0,.08.08,0,0,1,0,.07v1.9a.08.08,0,0,1-.08.08.08.08,0,0,1-.09-.08h0V26Z" transform="translate(-8.92 -0.6)"/><path class="cls-1" d="M48.35,25.77a.62.62,0,0,1,.41.16.59.59,0,0,1,.16.4v1a.59.59,0,0,1-.16.4.53.53,0,0,1-.41.16.56.56,0,0,1-.56-.56v-1a.48.48,0,0,1,.16-.39.56.56,0,0,1,.4-.17Zm.39.56a.35.35,0,0,0-.11-.27.4.4,0,0,0-.28-.12.41.41,0,0,0-.39.39v1a.41.41,0,0,0,.39.39.36.36,0,0,0,.28-.12.35.35,0,0,0,.11-.27Z" transform="translate(-8.92 -0.6)"/><path class="cls-1" d="M50,26l-.38.14h-.07a.1.1,0,0,1,0-.05.06.06,0,0,1,0-.06.08.08,0,0,1,.05-.05l.49-.18a.09.09,0,0,1,.11,0,0,0,0,0,0,0,0v1.89a.09.09,0,0,1-.09.08.07.07,0,0,1-.08-.08h0V26Z" transform="translate(-8.92 -0.6)"/><path class="cls-1" d="M51.51,25.77a.57.57,0,0,1,.39.16.54.54,0,0,1,.17.4v1a.57.57,0,0,1-1.14,0v-1a.54.54,0,0,1,.17-.4.57.57,0,0,1,.39-.16Zm.39.56a.36.36,0,0,0-.12-.27.39.39,0,0,0-.54,0l0,0a.36.36,0,0,0-.12.27v1a.36.36,0,0,0,.12.27.37.37,0,0,0,.54,0l0,0a.36.36,0,0,0,.12-.27Z" transform="translate(-8.92 -0.6)"/><path class="cls-1" d="M53.24,25.77a.56.56,0,0,1,.57.56v1a.56.56,0,0,1-.17.4.55.55,0,0,1-.39.16.57.57,0,0,1-.57-.57v-1a.56.56,0,0,1,.17-.4.58.58,0,0,1,.4-.16Zm.39.56A.39.39,0,0,0,53,26l0,0a.39.39,0,0,0-.11.27v1a.4.4,0,0,0,.66.29l0,0a.39.39,0,0,0,.11-.27Z" transform="translate(-8.92 -0.6)"/><path class="cls-1" d="M55,25.77a.55.55,0,0,1,.56.56v1a.59.59,0,0,1-.16.4.57.57,0,0,1-.8,0,.56.56,0,0,1-.17-.4v-1a.56.56,0,0,1,.17-.4A.59.59,0,0,1,55,25.77Zm.39.56a.41.41,0,0,0-.39-.39.36.36,0,0,0-.28.12.39.39,0,0,0-.11.27v1a.39.39,0,0,0,.11.27.36.36,0,0,0,.28.12.41.41,0,0,0,.39-.39Z" transform="translate(-8.92 -0.6)"/><path class="cls-1" d="M57.45,26l-.38.14H57a.12.12,0,0,1,0-.05A.06.06,0,0,1,57,26S57,26,57,26l.49-.18a.06.06,0,0,1,.08,0,.08.08,0,0,1,0,.07v1.9a.09.09,0,0,1,0,.06.06.06,0,0,1-.06,0,.06.06,0,0,1-.06,0,.07.07,0,0,1,0-.06V26Z" transform="translate(-8.92 -0.6)"/><path class="cls-1" d="M59,25.77a.55.55,0,0,1,.39.16.56.56,0,0,1,.17.4v1a.57.57,0,0,1-1.13,0v-1a.56.56,0,0,1,.17-.4A.58.58,0,0,1,59,25.77Zm.38.56a.32.32,0,0,0-.11-.27.39.39,0,0,0-.54,0l0,0a.39.39,0,0,0-.11.27v1a.39.39,0,0,0,.11.27.38.38,0,0,0,.54,0l0,0a.32.32,0,0,0,.11-.27Z" transform="translate(-8.92 -0.6)"/><path class="cls-1" d="M60.59,26l-.37.14h-.07a.07.07,0,0,1,0-.05.09.09,0,0,1,0-.11l.49-.18a.06.06,0,0,1,.08,0,.08.08,0,0,1,0,.07v1.9a.07.07,0,0,1-.07.08h0a.06.06,0,0,1-.06,0,.07.07,0,0,1,0-.06V26Z" transform="translate(-8.92 -0.6)"/><path class="cls-1" d="M62,26l-.37.14h-.07a.12.12,0,0,1,0-.05.06.06,0,0,1,0-.06.08.08,0,0,1,0-.05l.5-.18a.07.07,0,0,1,.1,0,0,0,0,0,1,0,0v1.89a.09.09,0,0,1-.08.08.08.08,0,0,1-.09-.08h0V26Z" transform="translate(-8.92 -0.6)"/><path class="cls-1" d="M63.57,25.77a.59.59,0,0,1,.4.16.54.54,0,0,1,.17.4v1a.54.54,0,0,1-.17.4.51.51,0,0,1-.4.16.57.57,0,0,1-.57-.56v-1a.52.52,0,0,1,.17-.39.54.54,0,0,1,.39-.17Zm.39.56a.39.39,0,0,0-.11-.27.4.4,0,0,0-.55,0l0,0a.39.39,0,0,0-.11.27v1a.39.39,0,0,0,.11.27.37.37,0,0,0,.54,0l0,0a.39.39,0,0,0,.11-.27Z" transform="translate(-8.92 -0.6)"/><path class="cls-1" d="M65.17,26l-.38.14h-.07l0-.05a.06.06,0,0,1,0-.06s0,0,.06-.05l.49-.18a.09.09,0,0,1,.11,0v1.92a.08.08,0,0,1-.07.08h0a.09.09,0,0,1-.07,0,.11.11,0,0,1,0-.06V26Z" transform="translate(-8.92 -0.6)"/><path class="cls-1" d="M67.63,26l-.37.14h-.07a.07.07,0,0,1,0-.05.06.06,0,0,1,0-.06s0,0,0-.05l.49-.18a.06.06,0,0,1,.08,0,.07.07,0,0,1,0,.07v1.9a.09.09,0,0,1,0,.06.08.08,0,0,1-.12,0,.08.08,0,0,1,0-.05V26Z" transform="translate(-8.92 -0.6)"/><path class="cls-1" d="M69,26l-.37.14h-.07a.12.12,0,0,1,0-.05V26a.08.08,0,0,1,0-.05l.5-.18a.06.06,0,0,1,.08,0,.08.08,0,0,1,0,.07v1.9a.09.09,0,0,1-.08.08.08.08,0,0,1-.09-.08h0V26Z" transform="translate(-8.92 -0.6)"/><path class="cls-1" d="M70.58,25.77a.58.58,0,0,1,.4.16.56.56,0,0,1,.17.4v1a.56.56,0,0,1-.17.4.5.5,0,0,1-.4.16.56.56,0,0,1-.56-.56v-1a.48.48,0,0,1,.16-.39.54.54,0,0,1,.4-.17Zm.39.56a.35.35,0,0,0-.11-.27.4.4,0,0,0-.28-.12.41.41,0,0,0-.39.39v1a.41.41,0,0,0,.39.39.36.36,0,0,0,.28-.12.35.35,0,0,0,.11-.27Z" transform="translate(-8.92 -0.6)"/><path class="cls-1" d="M72.16,26l-.38.14h-.06l0-.05a.06.06,0,0,1,0-.06.08.08,0,0,1,0-.05l.5-.18a.07.07,0,0,1,.1,0,0,0,0,0,1,0,0v1.89a.09.09,0,0,1-.08.08.08.08,0,0,1-.09-.08h0V26Z" transform="translate(-8.92 -0.6)"/><path class="cls-1" d="M73.6,26l-.37.14h-.07a.1.1,0,0,1,0-.05.06.06,0,0,1,0-.06.08.08,0,0,1,0-.05l.49-.18a.06.06,0,0,1,.08,0,.07.07,0,0,1,0,.07v1.9a.08.08,0,0,1-.08.08h0a.06.06,0,0,1-.06,0,.07.07,0,0,1,0-.06V26Z" transform="translate(-8.92 -0.6)"/><path class="cls-1" d="M75.16,25.77a.56.56,0,0,1,.56.56v1a.59.59,0,0,1-.16.4.58.58,0,0,1-.4.16.55.55,0,0,1-.56-.56v-1a.55.55,0,0,1,.16-.39.56.56,0,0,1,.4-.17Zm.39.56a.39.39,0,0,0-.11-.27.4.4,0,0,0-.55,0l0,0a.39.39,0,0,0-.11.27v1a.39.39,0,0,0,.11.27.37.37,0,0,0,.54,0l0,0a.39.39,0,0,0,.11-.27Z" transform="translate(-8.92 -0.6)"/><path class="cls-1" d="M76.9,25.77a.57.57,0,0,1,.39.16.56.56,0,0,1,.17.4v1a.56.56,0,0,1-.17.4.57.57,0,0,1-.8,0,.59.59,0,0,1-.16-.4v-1a.59.59,0,0,1,.16-.4A.62.62,0,0,1,76.9,25.77Zm.39.56a.41.41,0,0,0-.39-.39.36.36,0,0,0-.28.12.32.32,0,0,0-.11.27v1a.32.32,0,0,0,.11.27.36.36,0,0,0,.28.12.36.36,0,0,0,.27-.12.4.4,0,0,0,.12-.27Z" transform="translate(-8.92 -0.6)"/><path class="cls-1" d="M79.36,26l-.38.14h-.06a.12.12,0,0,1,0-.05.09.09,0,0,1,0-.11l.49-.18a.06.06,0,0,1,.08,0,.08.08,0,0,1,0,.07v2a.09.09,0,0,1-.07,0,0,0,0,0,1,0,0,.06.06,0,0,1,0-.06V26Z" transform="translate(-8.92 -0.6)"/><path class="cls-1" d="M80.78,26l-.37.14h-.07a.07.07,0,0,1,0-.05.09.09,0,0,1,0-.11l.49-.18a.06.06,0,0,1,.08,0,.08.08,0,0,1,0,.07v1.9a.08.08,0,0,1-.08.08.08.08,0,0,1-.09-.08h0V26Z" transform="translate(-8.92 -0.6)"/><path class="cls-1" d="M82.35,25.77a.55.55,0,0,1,.56.56v1a.59.59,0,0,1-.16.4.57.57,0,0,1-.8,0,.54.54,0,0,1-.17-.4v-1a.54.54,0,0,1,.17-.4A.58.58,0,0,1,82.35,25.77Zm.39.56a.36.36,0,0,0-.12-.27.39.39,0,0,0-.54,0l0,0a.36.36,0,0,0-.12.27v1a.36.36,0,0,0,.12.27.37.37,0,0,0,.54,0l0,0a.36.36,0,0,0,.12-.27Z" transform="translate(-8.92 -0.6)"/><path class="cls-1" d="M83.94,26l-.38.14h-.07a.09.09,0,0,1,0-.07.06.06,0,0,1,0-.06.08.08,0,0,1,0,0l.49-.18a.1.1,0,0,1,.11,0v1.94a.08.08,0,0,1-.08.08.08.08,0,0,1-.09-.08h0V26Z" transform="translate(-8.92 -0.6)"/><path class="cls-1" d="M85.36,26l-.38.14h-.06a.12.12,0,0,1,0-.05.06.06,0,0,1,0-.06s0,0,.06-.05l.48-.18a.07.07,0,0,1,.09,0,.08.08,0,0,1,0,.07v1.9a.08.08,0,0,1-.07.08h0a.09.09,0,0,1-.07,0,.11.11,0,0,1,0-.06V26Z" transform="translate(-8.92 -0.6)"/><path class="cls-1" d="M86.78,26l-.37.14h-.07a.09.09,0,0,1,0-.07.06.06,0,0,1,0-.06s0,0,0,0l.48-.18a.11.11,0,0,1,.08,0,.07.07,0,0,1,0,.07v1.92a.09.09,0,0,1-.12.06.14.14,0,0,1,0-.06V26Z" transform="translate(-8.92 -0.6)"/><path class="cls-1" d="M88.21,26l-.38.14h-.06l0-.05a.09.09,0,0,1,0-.11l.49-.18a.06.06,0,0,1,.08,0,.08.08,0,0,1,0,.07v1.9a.09.09,0,0,1,0,.06.06.06,0,0,1-.06,0,.06.06,0,0,1-.06,0,.09.09,0,0,1,0-.06V26Z" transform="translate(-8.92 -0.6)"/><path class="cls-1" d="M90.64,26l-.37.14H90.2a.1.1,0,0,1,0-.05.06.06,0,0,1,0-.06.08.08,0,0,1,0-.05l.49-.18a.08.08,0,0,1,.11,0s0,0,0,0v1.89a.08.08,0,0,1-.08.08h0a0,0,0,0,1-.06-.06V26Z" transform="translate(-8.92 -0.6)"/><path class="cls-1" d="M92.07,26l-.38.14h-.06a.08.08,0,0,1,0-.05.09.09,0,0,1,.06-.11l.48-.18a.06.06,0,0,1,.08,0,.07.07,0,0,1,0,.07v1.9a.09.09,0,0,1-.12.06.09.09,0,0,1,0-.06V26Z" transform="translate(-8.92 -0.6)"/><path class="cls-1" d="M93.62,25.77a.56.56,0,0,1,.57.56v1a.56.56,0,0,1-.17.4.55.55,0,0,1-.39.16.58.58,0,0,1-.4-.16.56.56,0,0,1-.17-.4v-1a.52.52,0,0,1,.17-.39.54.54,0,0,1,.4-.17Zm.39.56a.39.39,0,0,0-.65-.29l0,0a.39.39,0,0,0-.11.27v1a.4.4,0,0,0,.66.29l0,0a.39.39,0,0,0,.11-.27Z" transform="translate(-8.92 -0.6)"/><path class="cls-1" d="M95.36,25.77a.59.59,0,0,1,.4.16.56.56,0,0,1,.17.4v1a.56.56,0,0,1-.17.4.57.57,0,0,1-.8,0,.59.59,0,0,1-.16-.4v-1a.55.55,0,0,1,.56-.56Zm.39.56a.39.39,0,0,0-.11-.27.36.36,0,0,0-.28-.12.41.41,0,0,0-.39.39v1a.41.41,0,0,0,.39.39.36.36,0,0,0,.28-.12.39.39,0,0,0,.11-.27Z" transform="translate(-8.92 -0.6)"/><path class="cls-1" d="M97.09,25.77a.58.58,0,0,1,.4.16.56.56,0,0,1,.17.4v1a.56.56,0,0,1-.17.4.5.5,0,0,1-.4.16.56.56,0,0,1-.56-.56v-1a.48.48,0,0,1,.16-.39.56.56,0,0,1,.4-.17Zm.39.56a.39.39,0,0,0-.11-.27.4.4,0,0,0-.28-.12.41.41,0,0,0-.39.39v1a.41.41,0,0,0,.39.39.36.36,0,0,0,.28-.12.39.39,0,0,0,.11-.27Z" transform="translate(-8.92 -0.6)"/><path class="cls-1" d="M98.83,25.77a.55.55,0,0,1,.39.16.54.54,0,0,1,.17.4v1a.57.57,0,1,1-1.13,0v-1a.5.5,0,0,1,.16-.4.59.59,0,0,1,.4-.16Zm.39.56a.39.39,0,0,0-.11-.27.4.4,0,0,0-.55,0l0,0a.39.39,0,0,0-.11.27v1a.39.39,0,0,0,.11.27.37.37,0,0,0,.54,0l0,0a.39.39,0,0,0,.11-.27Z" transform="translate(-8.92 -0.6)"/><path class="cls-1" d="M100.45,26l-.37.14H100a.1.1,0,0,1,0-.05.06.06,0,0,1,0-.06.08.08,0,0,1,0-.05l.49-.18a.06.06,0,0,1,.08,0,.07.07,0,0,1,0,.07v1.9a0,0,0,1,1-.06.06.09.09,0,0,1-.07,0,.1.1,0,0,1,0-.06V26Z" transform="translate(-8.92 -0.6)"/><path class="cls-1" d="M102.86,26l-.37.14h-.07a.1.1,0,0,1,0-.05.06.06,0,0,1,0-.06s0,0,0-.05l.49-.18a.06.06,0,0,1,.08,0,.07.07,0,0,1,0,.07v1.9a.09.09,0,0,1,0,.06.06.06,0,0,1-.06,0,.08.08,0,0,1-.08-.07h0V26Z" transform="translate(-8.92 -0.6)"/><path class="cls-1" d="M104.29,26l-.38.14a.1.1,0,0,1-.11-.06.06.06,0,0,1,0-.06l0-.05.5-.18h.08a.09.09,0,0,1,0,.07v1.91a.09.09,0,0,1-.09.08.08.08,0,0,1-.08-.08h0V26Z" transform="translate(-8.92 -0.6)"/><path class="cls-1" d="M105.84,25.77a.59.59,0,0,1,.4.16.6.6,0,0,1,.17.4v1a.6.6,0,0,1-.17.4.51.51,0,0,1-.4.16.57.57,0,0,1-.57-.56v-1a.52.52,0,0,1,.17-.39.54.54,0,0,1,.39-.17Zm.39.56a.39.39,0,0,0-.11-.27.4.4,0,0,0-.55,0l0,0a.39.39,0,0,0-.11.27v1a.39.39,0,0,0,.11.27.37.37,0,0,0,.54,0l0,0a.39.39,0,0,0,.11-.27Z" transform="translate(-8.92 -0.6)"/><path class="cls-1" d="M107.58,25.77a.55.55,0,0,1,.39.16.54.54,0,0,1,.17.4v1a.57.57,0,0,1-.57.57.56.56,0,0,1-.56-.57v-1a.51.51,0,0,1,.17-.4.55.55,0,0,1,.39-.16Zm.39.56a.36.36,0,0,0-.12-.27.39.39,0,0,0-.54,0l0,0a.32.32,0,0,0-.11.27v1a.32.32,0,0,0,.11.27.37.37,0,0,0,.54,0l0,0a.36.36,0,0,0,.12-.27Z" transform="translate(-8.92 -0.6)"/><path class="cls-1" d="M109.17,26l-.37.14h-.07a.1.1,0,0,1,0-.05.09.09,0,0,1,0-.11l.49-.18a.06.06,0,0,1,.08,0,.07.07,0,0,1,0,.07v1.9a0,0,0,0,1-.06.06.09.09,0,0,1-.07,0V26Z" transform="translate(-8.92 -0.6)"/><path class="cls-1" d="M110.73,25.77a.56.56,0,0,1,.56.56v1a.55.55,0,0,1-.16.4.58.58,0,0,1-.4.16.55.55,0,0,1-.56-.56v-1a.55.55,0,0,1,.16-.39.56.56,0,0,1,.4-.17Zm.39.56a.39.39,0,0,0-.11-.27.44.44,0,0,0-.28-.12.4.4,0,0,0-.39.39v1a.39.39,0,0,0,.39.39.39.39,0,0,0,.28-.12.39.39,0,0,0,.11-.27Z" transform="translate(-8.92 -0.6)"/><path class="cls-1" d="M112.47,25.77a.57.57,0,0,1,.39.16.56.56,0,0,1,.17.4v1a.56.56,0,0,1-.17.4.57.57,0,0,1-.8,0,.59.59,0,0,1-.16-.4v-1a.59.59,0,0,1,.16-.4A.62.62,0,0,1,112.47,25.77Zm.39.56a.41.41,0,0,0-.39-.39.36.36,0,0,0-.28.12.32.32,0,0,0-.11.27v1a.32.32,0,0,0,.11.27.36.36,0,0,0,.28.12.41.41,0,0,0,.39-.39Z" transform="translate(-8.92 -0.6)"/><path class="cls-1" d="M114.73,25.78l.06,0a.06.06,0,0,1,0,.06l-.16,1.89a.06.06,0,0,1,0,.06h0a.09.09,0,0,1-.07,0v-.06l.16-1.9a.09.09,0,0,1,0-.06h0Z" transform="translate(-8.92 -0.6)"/><path class="cls-1" d="M9.82,29.53l-.37.14H9.38a.12.12,0,0,1-.05-.05.08.08,0,0,1,0-.07.12.12,0,0,1,.05-.05l.49-.17a.06.06,0,0,1,.08,0,.07.07,0,0,1,0,.06V31.3a.06.06,0,0,1,0,.06.09.09,0,0,1-.12,0h0a.06.06,0,0,1,0-.06V29.52Z" transform="translate(-8.92 -0.6)"/><path class="cls-1" d="M11.24,29.53l-.37.14H10.8a.07.07,0,0,1,0-.05.08.08,0,0,1,0-.07.12.12,0,0,1,.05-.05l.49-.17a.08.08,0,0,1,.11.05v1.93a.06.06,0,0,1,0,.06.08.08,0,0,1-.12,0h0a.06.06,0,0,1,0-.06V29.53Z" transform="translate(-8.92 -0.6)"/><path class="cls-1" d="M12.8,29.32a.53.53,0,0,1,.39.16.56.56,0,0,1,.17.4v.95a.54.54,0,0,1-.17.4.56.56,0,0,1-.79,0,.54.54,0,0,1-.17-.4v-.95a.56.56,0,0,1,.17-.4A.54.54,0,0,1,12.8,29.32Zm.39.56a.39.39,0,0,0-.12-.28.4.4,0,0,0-.56,0h0a.39.39,0,0,0-.12.28v.95a.36.36,0,0,0,.12.28.39.39,0,0,0,.56,0h0a.36.36,0,0,0,.12-.28Z" transform="translate(-8.92 -0.6)"/><path class="cls-1" d="M14.53,29.32a.55.55,0,0,1,.4.16.59.59,0,0,1,.16.4v.95a.58.58,0,0,1-.16.4.56.56,0,0,1-.8,0,.54.54,0,0,1-.16-.4v-.95a.55.55,0,0,1,.16-.4A.51.51,0,0,1,14.53,29.32Zm.39.56a.43.43,0,0,0-.11-.28.4.4,0,0,0-.56,0h0a.43.43,0,0,0-.11.28v.95a.39.39,0,0,0,.11.28.39.39,0,0,0,.56,0h0a.39.39,0,0,0,.11-.28Z" transform="translate(-8.92 -0.6)"/><path class="cls-1" d="M16.14,29.53l-.37.14H15.7l0-.05a.08.08,0,0,1,0-.07l0-.05.49-.17a.06.06,0,0,1,.08,0,.08.08,0,0,1,0,.06V31.3a.06.06,0,0,1,0,.06.07.07,0,0,1-.06,0,.11.11,0,0,1-.09-.09V29.52Z" transform="translate(-8.92 -0.6)"/><path class="cls-1" d="M17.68,29.32a.56.56,0,0,1,.57.56v.95a.57.57,0,1,1-1.13,0v-.95A.56.56,0,0,1,17.68,29.32Zm.39.56a.39.39,0,0,0-.39-.39.39.39,0,0,0-.27.11.39.39,0,0,0-.12.28v.95a.36.36,0,0,0,.12.28.39.39,0,0,0,.66-.28Z" transform="translate(-8.92 -0.6)"/><path class="cls-1" d="M19.28,29.53l-.37.14h-.07l-.05-.05v-.07l.05-.05.49-.17a.06.06,0,0,1,.08,0,.08.08,0,0,1,0,.06V31.3a.09.09,0,0,1,0,.06.07.07,0,0,1-.06,0,.09.09,0,0,1-.06,0,.06.06,0,0,1,0-.06V29.52Z" transform="translate(-8.92 -0.6)"/><path class="cls-1" d="M21.71,29.53l-.37.14h-.06a.12.12,0,0,1-.05-.05.08.08,0,0,1,0-.07l.05-.05.5-.17a.07.07,0,0,1,.1.05,0,0,0,0,1,0,0v1.9a.06.06,0,0,1,0,.06.09.09,0,0,1-.06,0s-.09,0-.09-.09V29.53Z" transform="translate(-8.92 -0.6)"/><path class="cls-1" d="M23.27,29.32a.55.55,0,0,1,.4.16.59.59,0,0,1,.16.4v.95a.58.58,0,0,1-.16.4.56.56,0,0,1-.4.17.58.58,0,0,1-.57-.57v-.95a.56.56,0,0,1,.17-.4A.5.5,0,0,1,23.27,29.32Zm.39.56a.43.43,0,0,0-.11-.28.4.4,0,0,0-.56,0h0a.43.43,0,0,0-.11.28v.95a.39.39,0,0,0,.11.28.39.39,0,0,0,.56,0h0a.39.39,0,0,0,.11-.28Z" transform="translate(-8.92 -0.6)"/><path class="cls-1" d="M24.86,29.53l-.37.14h-.07l0-.05a.08.08,0,0,1,0-.07l.05-.05.49-.17a.06.06,0,0,1,.08,0s0,0,0,.06V31.3a.06.06,0,0,1,0,.06.05.05,0,0,1-.05,0,.11.11,0,0,1-.09-.09V29.52Z" transform="translate(-8.92 -0.6)"/><path class="cls-1" d="M26.29,29.53l-.37.14h-.07s0,0-.05-.05v-.07a.12.12,0,0,1,.05-.05l.49-.17a.06.06,0,0,1,.08,0,.06.06,0,0,1,0,.06V31.3a.11.11,0,0,1-.09.09.09.09,0,0,1-.06,0s0,0,0-.06V29.52Z" transform="translate(-8.92 -0.6)"/><path class="cls-1" d="M27.85,29.32a.56.56,0,0,1,.56.56v.95a.57.57,0,1,1-1.13,0v-.95A.56.56,0,0,1,27.85,29.32Zm.39.56a.4.4,0,0,0-.39-.39.39.39,0,0,0-.28.11.35.35,0,0,0-.11.28v.95a.33.33,0,0,0,.11.28.38.38,0,0,0,.55,0h0a.36.36,0,0,0,.11-.28v-.95Z" transform="translate(-8.92 -0.6)"/><path class="cls-1" d="M29.44,29.53l-.37.14H29a.07.07,0,0,1,0-.05.08.08,0,0,1,0-.07A.12.12,0,0,1,29,29.5l.49-.17a.06.06,0,0,1,.08,0,.08.08,0,0,1,0,.06V31.3a.06.06,0,0,1,0,.06.09.09,0,0,1-.12,0h0V29.52Z" transform="translate(-8.92 -0.6)"/><path class="cls-1" d="M31.88,29.53l-.38.14h-.08a.08.08,0,0,1-.05-.05.08.08,0,0,1,0-.07s0,0,.05-.05l.5-.17a0,0,0,0,1,.07,0,.06.06,0,0,1,0,.06V31.3a.06.06,0,0,1,0,.06l-.06,0a.11.11,0,0,1-.09-.09V29.52Z" transform="translate(-8.92 -0.6)"/><path class="cls-1" d="M33.3,29.53l-.37.14h-.07s0,0,0-.05a.08.08,0,0,1,0-.07.08.08,0,0,1,0-.05l.48-.17a.06.06,0,0,1,.08,0,.06.06,0,0,1,0,.06V31.3a.11.11,0,0,1-.09.09.09.09,0,0,1-.06,0V29.52Z" transform="translate(-8.92 -0.6)"/><path class="cls-1" d="M34.86,29.32a.56.56,0,0,1,.56.56v.95a.57.57,0,0,1-.56.57.58.58,0,0,1-.57-.57v-.95A.57.57,0,0,1,34.86,29.32Zm.39.56a.4.4,0,0,0-.39-.39.39.39,0,0,0-.28.11.35.35,0,0,0-.11.28v.95a.33.33,0,0,0,.11.28.4.4,0,0,0,.67-.28Z" transform="translate(-8.92 -0.6)"/><path class="cls-1" d="M36.59,29.32a.57.57,0,0,1,.57.56v.95a.58.58,0,0,1-.57.57.6.6,0,0,1-.4-.17.58.58,0,0,1-.16-.4v-.95a.59.59,0,0,1,.16-.4A.55.55,0,0,1,36.59,29.32Zm.39.56a.38.38,0,0,0-.39-.39.4.4,0,0,0-.39.39v.95a.39.39,0,0,0,.39.39.43.43,0,0,0,.28-.11.39.39,0,0,0,.11-.28Z" transform="translate(-8.92 -0.6)"/><path class="cls-1" d="M38.33,29.32a.56.56,0,0,1,.56.56v.95a.57.57,0,0,1-.56.57.56.56,0,0,1-.4-.17.54.54,0,0,1-.16-.4v-.95a.55.55,0,0,1,.56-.56Zm.39.56a.39.39,0,0,0-.12-.28.39.39,0,0,0-.27-.11.39.39,0,0,0-.39.39v.95a.39.39,0,0,0,.66.28.36.36,0,0,0,.12-.28Z" transform="translate(-8.92 -0.6)"/><path class="cls-1" d="M39.91,29.53l-.38.14h-.07a.1.1,0,0,1,0-.05.08.08,0,0,1,0-.07.12.12,0,0,1,0-.05l.49-.17a.08.08,0,0,1,.11.05s0,0,0,0v2a.09.09,0,0,1-.07,0,.09.09,0,0,1-.06,0,.06.06,0,0,1,0-.06V29.53Z" transform="translate(-8.92 -0.6)"/><path class="cls-1" d="M41.35,29.53l-.37.14h-.07a.1.1,0,0,1,0-.12.12.12,0,0,1,.05-.05l.49-.17a.06.06,0,0,1,.08,0,.07.07,0,0,1,0,.06V31.3a.06.06,0,0,1,0,.06.06.06,0,0,1-.06,0,.11.11,0,0,1-.09-.09V29.52Z" transform="translate(-8.92 -0.6)"/><path class="cls-1" d="M43.79,29.53l-.38.14h-.06a.08.08,0,0,1-.05-.05.08.08,0,0,1,0-.07.12.12,0,0,1,.05-.05l.49-.17a.06.06,0,0,1,.08,0,.07.07,0,0,1,0,.06V31.3a.06.06,0,0,1,0,.06.09.09,0,0,1-.12,0h0a.06.06,0,0,1,0-.06V29.52Z" transform="translate(-8.92 -0.6)"/><path class="cls-1" d="M45.21,29.53l-.38.14h-.06a.07.07,0,0,1,0-.05.08.08,0,0,1,0-.07.12.12,0,0,1,.05-.05l.49-.17a.08.08,0,0,1,.11.05v1.93a.06.06,0,0,1,0,.06.08.08,0,0,1-.12,0h0a.06.06,0,0,1,0-.06V29.53Z" transform="translate(-8.92 -0.6)"/><path class="cls-1" d="M46.76,29.32a.55.55,0,0,1,.56.56v.95a.54.54,0,0,1-.16.4.57.57,0,0,1-.8,0,.59.59,0,0,1-.16-.4v-.95A.56.56,0,0,1,46.76,29.32Zm.39.56A.38.38,0,0,0,47,29.6a.4.4,0,0,0-.56,0h0a.39.39,0,0,0-.12.28v.95a.36.36,0,0,0,.12.28.39.39,0,0,0,.56,0h0a.36.36,0,0,0,.11-.28Z" transform="translate(-8.92 -0.6)"/><path class="cls-1" d="M48.36,29.53l-.37.14h-.07a.1.1,0,0,1,0-.05.08.08,0,0,1,0-.07.12.12,0,0,1,0-.05l.49-.17a.08.08,0,0,1,.11.05v1.93a.06.06,0,0,1,0,.06.06.06,0,0,1-.06,0s-.09,0-.09-.09V29.53Z" transform="translate(-8.92 -0.6)"/><path class="cls-1" d="M49.79,29.53l-.38.14h-.07l0-.05a.08.08,0,0,1,0-.07.12.12,0,0,1,.05-.05l.49-.17a.06.06,0,0,1,.08,0,.08.08,0,0,1,0,.06V31.3a.13.13,0,0,1-.1.09.05.05,0,0,1,0,0,.09.09,0,0,1,0-.06V29.52Z" transform="translate(-8.92 -0.6)"/><path class="cls-1" d="M51.22,29.53l-.37.14h-.07a.07.07,0,0,1,0-.05.08.08,0,0,1,0-.07.07.07,0,0,1,0-.05l.49-.17a.06.06,0,0,1,.08,0,.06.06,0,0,1,0,.06V31.3a.09.09,0,0,1,0,.06.09.09,0,0,1-.12,0h0a.06.06,0,0,1,0-.06V29.52Z" transform="translate(-8.92 -0.6)"/><path class="cls-1" d="M52.64,29.53l-.38.14H52.2a.08.08,0,0,1-.05-.05.08.08,0,0,1,0-.07.12.12,0,0,1,.05-.05l.49-.17a.06.06,0,0,1,.08,0,.06.06,0,0,1,0,.06V31.3a.06.06,0,0,1,0,.06.09.09,0,0,1-.12,0h0a.06.06,0,0,1,0-.06V29.52Z" transform="translate(-8.92 -0.6)"/><path class="cls-1" d="M55.07,29.53l-.37.14h-.08a.1.1,0,0,1,0-.12.12.12,0,0,1,.05-.05l.49-.17a.06.06,0,0,1,.08,0s0,0,0,.06V31.3a.06.06,0,0,1,0,.06.06.06,0,0,1-.06,0,.11.11,0,0,1-.09-.09V29.52Z" transform="translate(-8.92 -0.6)"/><path class="cls-1" d="M56.5,29.53l-.38.14h-.06L56,29.62a.08.08,0,0,1,0-.07.08.08,0,0,1,.05-.05l.49-.17a.06.06,0,0,1,.08,0,.08.08,0,0,1,0,.06V31.3a.14.14,0,0,1-.09.09.06.06,0,0,1-.06,0,.09.09,0,0,1,0-.06V29.52Z" transform="translate(-8.92 -0.6)"/><path class="cls-1" d="M58.05,29.32a.56.56,0,0,1,.57.56v.95a.57.57,0,1,1-1.13,0v-.95A.56.56,0,0,1,58.05,29.32Zm.39.56a.39.39,0,0,0-.39-.39.39.39,0,0,0-.27.11.39.39,0,0,0-.12.28v.95a.36.36,0,0,0,.12.28.39.39,0,0,0,.66-.28Z" transform="translate(-8.92 -0.6)"/><path class="cls-1" d="M59.65,29.53l-.38.14h-.06a.12.12,0,0,1-.05-.05.08.08,0,0,1,0-.07.12.12,0,0,1,.05-.05l.49-.17a.06.06,0,0,1,.08,0,.07.07,0,0,1,0,.06V31.3a.06.06,0,0,1,0,.06.09.09,0,0,1-.12,0h0a.06.06,0,0,1,0-.06V29.52Z" transform="translate(-8.92 -0.6)"/><path class="cls-1" d="M61.07,29.53l-.37.14h-.07a.07.07,0,0,1,0-.05.08.08,0,0,1,0-.07.12.12,0,0,1,0-.05l.49-.17a.08.08,0,0,1,.11.05v1.93a.06.06,0,0,1,0,.06.08.08,0,0,1-.12,0h0a.09.09,0,0,1,0-.06V29.53Z" transform="translate(-8.92 -0.6)"/><path class="cls-1" d="M62.62,29.32a.54.54,0,0,1,.4.16.56.56,0,0,1,.17.4v.95a.54.54,0,0,1-.17.4.57.57,0,0,1-.8,0,.59.59,0,0,1-.16-.4v-.95A.56.56,0,0,1,62.62,29.32Zm.4.56a.39.39,0,0,0-.12-.28.4.4,0,0,0-.56,0h0a.39.39,0,0,0-.12.28v.95a.36.36,0,0,0,.12.28.39.39,0,0,0,.56,0h0a.36.36,0,0,0,.12-.28Z" transform="translate(-8.92 -0.6)"/><path class="cls-1" d="M64.24,29.53l-.38.14H63.8s0,0,0-.05a.08.08,0,0,1,0-.07.12.12,0,0,1,0-.05l.49-.17a.06.06,0,0,1,.08,0,.06.06,0,0,1,0,.06V31.3a.06.06,0,0,1,0,.06.09.09,0,0,1-.06,0,.13.13,0,0,1-.1-.09V29.52Z" transform="translate(-8.92 -0.6)"/><path class="cls-1" d="M16.59,13.38H10.52v-12a.8.8,0,0,0-.8-.8.79.79,0,0,0-.56.23.82.82,0,0,0-.24.57V14.17a.82.82,0,0,0,.8.81H16.6a.76.76,0,0,0,.56-.24.74.74,0,0,0,.24-.56.8.8,0,0,0-.8-.8Z" transform="translate(-8.92 -0.6)"/><path class="cls-1" d="M51.31,7.71a3.92,3.92,0,0,0,1.06-1.23,3.79,3.79,0,0,0,.52-1.92,3.7,3.7,0,0,0-1.26-2.82A4.4,4.4,0,0,0,48.58.6H40.1a.81.81,0,0,0,0,1.62h8.48a2.79,2.79,0,0,1,1.93.68,2.09,2.09,0,0,1,.76,1.65,2.24,2.24,0,0,1-.78,1.73,2.67,2.67,0,0,1-1.9.72h-2a.81.81,0,0,0,0,1.61h2.21a2.77,2.77,0,0,1,1.92.69A2.07,2.07,0,0,1,51.54,11a2.17,2.17,0,0,1-.78,1.7,2.8,2.8,0,0,1-1.93.71H44V4.55a.81.81,0,0,0-1.62-.14V13.6h0v.57a.75.75,0,0,0,.25.56.74.74,0,0,0,.56.24h5.62a4.29,4.29,0,0,0,3-1.18,3.81,3.81,0,0,0-.57-6.09Z" transform="translate(-8.92 -0.6)"/><path class="cls-1" d="M65.31.63a7.17,7.17,0,1,0,5.09,2.1A6.89,6.89,0,0,0,65.31.63ZM70.88,7.8a5.55,5.55,0,1,1-5.53-5.54A5.58,5.58,0,0,1,70.88,7.8Z" transform="translate(-8.92 -0.6)"/><path class="cls-1" d="M121.06.63H110.45a.78.78,0,0,0-.56.24.72.72,0,0,0-.23.57.71.71,0,0,0,.23.56.79.79,0,0,0,.56.23H115V14.17a.81.81,0,0,0,.73.87.81.81,0,0,0,.87-.74.29.29,0,0,0,0-.13V2.23h4.53a.79.79,0,0,0,.56-.23.76.76,0,0,0,.24-.56.8.8,0,0,0-.24-.57.76.76,0,0,0-.57-.24Z" transform="translate(-8.92 -0.6)"/><path class="cls-1" d="M106.54,14.17h0v-.05a.35.35,0,0,0,0-.11V13.9l-1.33-3.19v-.05l-3.92-9.43-.05-.12h0v0L101.15,1a.75.75,0,0,0-1.06-.15.85.85,0,0,0-.23.27h0l0,.13-3.92,9.42v0h0l-.71,1.7h0l-.56,1.42v.07h0V14l0,.14a.76.76,0,0,0,.06.37.75.75,0,0,0,.44.43.86.86,0,0,0,.63,0,.74.74,0,0,0,.41-.44h0l1.19-2.83.47-1.16.53-1.26,7.1,5.62.18.1h0a.8.8,0,0,0,.3.06h0a.73.73,0,0,0,.57-.23l0,0h0a.16.16,0,0,0,0-.07.75.75,0,0,0,.11-.28v0h0v-.11ZM100.45,3.58l2.83,6.86.48,1.16h0l-5-4,1.69-4.06Z" transform="translate(-8.92 -0.6)"/><path class="cls-1" d="M77.13,12.84a1.61,1.61,0,0,1,2.26,0,1.59,1.59,0,1,1-2.26,0ZM77.26,15a1.36,1.36,0,0,0,1,.4,1.4,1.4,0,0,0,0-2.8A1.42,1.42,0,0,0,76.86,14,1.44,1.44,0,0,0,77.26,15Zm1.29-.89.38.72h-.22l-.36-.67h-.42v.67h-.2V13.15h.56a.57.57,0,0,1,.41.14.51.51,0,0,1,.15.35.5.5,0,0,1-.08.26.4.4,0,0,1-.15.14l-.08,0Zm-.62-.73v.56h.37c.24,0,.36-.09.36-.29s-.12-.29-.36-.29Z" transform="translate(-8.92 -0.6)"/><path class="cls-1" d="M83.62,8.58h1.2c.68,0,1.27-.06,1.27-.06a4.28,4.28,0,0,0,2.55-1.34,3.76,3.76,0,0,0-.16-5.31l-.07-.07a4.33,4.33,0,0,0-3-1.16H77.75a.8.8,0,0,0,0,1.59h7.64a2.72,2.72,0,0,1,1.9.7A2.18,2.18,0,0,1,87.55,6l-.26.26A2.72,2.72,0,0,1,85.43,7H81a.82.82,0,0,0-.81.81.83.83,0,0,0,.21.52h0l.14.14,6.3,6.3a.81.81,0,0,0,1.13.11.82.82,0,0,0,.11-1.14L88,13.6l-5-5h.64Z" transform="translate(-8.92 -0.6)"/><path class="cls-1" d="M35.62,13.86l-5-12-.26-.66a.37.37,0,0,1-.05-.11h0V1l-.05-.1h0a.75.75,0,0,0-.6-.3A.74.74,0,0,0,29,1h0a.52.52,0,0,0-.06.13L25,10.6v0h0l-.7,1.7v0l-.56,1.42v.07h0V14a.38.38,0,0,0,0,.15.68.68,0,0,0,.05.37.77.77,0,0,0,.45.42.75.75,0,0,0,.62,0,.76.76,0,0,0,.42-.44h0L29.79,3.57l4.53,10.9a.74.74,0,0,0,.74.5.64.64,0,0,0,.31-.07.7.7,0,0,0,.43-.43.75.75,0,0,0,0-.62Z" transform="translate(-8.92 -0.6)"/><path class="cls-1" d="M137.23,15.37a.74.74,0,0,0-.56-.24H129a.87.87,0,0,0-.57.24.8.8,0,0,0,0,1.13.83.83,0,0,0,.57.23h7.72a.82.82,0,0,0,.81-.79.77.77,0,0,0-.25-.57Z" transform="translate(-8.92 -0.6)"/><path class="cls-1" d="M132.81,13.35A6.38,6.38,0,1,1,139.22,7,6.37,6.37,0,0,1,132.81,13.35Zm0-11.15A4.78,4.78,0,1,0,137.61,7,4.78,4.78,0,0,0,132.81,2.2Z" transform="translate(-8.92 -0.6)"/></svg>